<svg width="173" height="173" viewBox="0 0 173 173" fill="none" xmlns="http://www.w3.org/2000/svg">
<path fill-rule="evenodd" clip-rule="evenodd" d="M85.5609 76.2673C85.5609 45.0445 76.7664 23.0812 68.6228 11.959C62.2205 3.99074 53.1006 -2.08869 42.7673 0.678679C32.4426 3.43726 27.5881 13.2592 26.0315 23.3623C24.4309 33.7992 25.6973 47.3462 29.9626 63.2212C32.5741 72.8968 35.9349 82.3548 40.0146 91.5099C30.4023 99.7855 24 111.11 24 124.112C24 138.415 31.7567 150.696 42.9695 159.095C54.1824 167.494 69.2648 172.431 85.5609 172.431C101.857 172.431 116.939 167.494 128.152 159.095C139.365 150.696 147.122 138.415 147.122 124.112C147.122 111.092 140.719 99.7855 131.116 91.5187C135.192 82.3634 138.55 72.9054 141.159 63.23C145.424 47.355 146.691 33.7992 145.09 23.3623C143.533 13.2592 138.679 3.43726 128.354 0.678679C118.021 -2.08869 108.901 3.99074 102.499 11.959C94.3551 23.0812 85.5609 45.0445 85.5609 76.2673ZM73.0992 128.452C72.4088 126.466 72.2041 124.344 72.5021 122.264C72.7998 120.183 73.5916 118.204 74.8113 116.491C76.0309 114.778 77.643 113.381 79.5131 112.418C81.383 111.454 83.4568 110.951 85.5609 110.951C87.665 110.951 89.7385 111.454 91.6086 112.418C93.4785 113.381 95.0906 114.778 96.3103 116.491C97.5299 118.204 98.3217 120.183 98.6195 122.264C98.9174 124.344 98.7127 126.466 98.0226 128.452L98.7525 128.505C101.085 128.505 103.322 129.43 104.971 131.078C106.62 132.725 107.547 134.96 107.547 137.29C107.547 139.62 106.62 141.855 104.971 143.502C103.322 145.15 101.085 146.075 98.7525 146.075C93.9953 146.075 89.3664 144.534 85.5609 141.683C81.7551 144.534 77.1262 146.075 72.3693 146.075C70.0367 146.075 67.7998 145.15 66.1506 143.502C64.5014 141.855 63.5748 139.62 63.5748 137.29C63.5748 134.96 64.5014 132.725 66.1506 131.078C67.7998 129.43 70.0367 128.505 72.3693 128.505L73.0992 128.452Z" fill="url(#paint0_linear_2_3)"/>
<defs>
<linearGradient id="paint0_linear_2_3" x1="85.5609" y1="1.16598e-06" x2="85.5609" y2="172.431" gradientUnits="userSpaceOnUse">
<stop stop-color="#FFF1BF"/>
<stop offset="0.478365" stop-color="#EC458D"/>
<stop offset="1" stop-color="#474ED7"/>
</linearGradient>
</defs>
</svg>
