<svg xmlns="http://www.w3.org/2000/svg" width="61" height="85" viewBox="0 0 61 85" fill="none"><metadata><rdf:RDF xmlns:rdf="http://www.w3.org/1999/02/22-rdf-syntax-ns#" xmlns:dc="http://purl.org/dc/elements/1.1/"><rdf:Description><dc:creator>RealFaviconGenerator</dc:creator><dc:source>https://realfavicongenerator.net</dc:source></rdf:Description></rdf:RDF></metadata><path fill-rule="evenodd" clip-rule="evenodd" d="M30.0417 37.257C30.0417 22.0045 25.75 11.2753 21.7759 5.84204C18.6516 1.9495 14.2011 -1.02034 9.15842 0.331538C4.12 1.67912 1.751 6.4772 0.991375 11.4126C0.210291 16.5111 0.828292 23.1289 2.90975 30.8839C4.18415 35.6105 5.82422 40.2308 7.81513 44.7031C3.12433 48.7458 0 54.2778 0 60.6295C0 67.6163 3.78525 73.616 9.25713 77.7189C14.729 81.8217 22.0892 84.2336 30.0417 84.2336C37.9941 84.2336 45.3543 81.8217 50.8262 77.7189C56.2981 73.616 60.0833 67.6163 60.0833 60.6295C60.0833 54.2692 56.959 48.7458 52.2725 44.7074C54.2619 40.235 55.9006 35.6147 57.1736 30.8882C59.255 23.1332 59.873 16.5111 59.092 11.4126C58.3323 6.4772 55.9633 1.67912 50.9249 0.331538C45.8822 -1.02034 41.4318 1.9495 38.3074 5.84204C34.3333 11.2753 30.0417 22.0045 30.0417 37.257ZM23.9604 62.7495C23.6235 61.7795 23.5236 60.743 23.669 59.7266C23.8143 58.7101 24.2007 57.7431 24.7959 56.9064C25.3911 56.0697 26.1778 55.3875 27.0904 54.9167C28.0029 54.446 29.0149 54.2003 30.0417 54.2003C31.0685 54.2003 32.0804 54.446 32.993 54.9167C33.9055 55.3875 34.6922 56.0697 35.2874 56.9064C35.8826 57.7431 36.269 58.7101 36.4143 59.7266C36.5597 60.743 36.4598 61.7795 36.123 62.7495L36.4792 62.7753C37.6174 62.7753 38.709 63.2274 39.5138 64.0323C40.3187 64.8371 40.7708 65.9287 40.7708 67.067C40.7708 68.2052 40.3187 69.2968 39.5138 70.1016C38.709 70.9065 37.6174 71.3586 36.4792 71.3586C34.1577 71.3586 31.8988 70.6057 30.0417 69.2128C28.1845 70.6057 25.9256 71.3586 23.6042 71.3586C22.4659 71.3586 21.3743 70.9065 20.5695 70.1016C19.7647 69.2968 19.3125 68.2052 19.3125 67.067C19.3125 65.9287 19.7647 64.8371 20.5695 64.0323C21.3743 63.2274 22.4659 62.7753 23.6042 62.7753L23.9604 62.7495Z" fill="url(#paint0_linear_2_9)"></path><defs>
<linearGradient id="paint0_linear_2_9" x1="30.0417" y1="0" x2="30.0417" y2="84.2336" gradientUnits="userSpaceOnUse">
<stop stop-color="#FFF1BF"></stop>
<stop offset="0.478365" stop-color="#EC458D"></stop>
<stop offset="1" stop-color="#474ED7"></stop>
</linearGradient>
</defs></svg>