<svg width="315" height="59" xmlns="http://www.w3.org/2000/svg" xmlns:xlink="http://www.w3.org/1999/xlink" xml:space="preserve" overflow="hidden"><defs><clipPath id="clip0"><rect x="167" y="1139" width="315" height="59"/></clipPath></defs><g clip-path="url(#clip0)" transform="translate(-167 -1139)"><path d="M171 1194C186.245 1176.18 201.49 1158.35 210.637 1157.33 219.784 1156.31 225.882 1187.89 225.882 1187.89L225.882 1187.89C231.98 1182.8 253.832 1157.33 262.47 1157.33 271.109 1157.33 268.568 1187.38 277.715 1187.89 286.862 1188.4 307.19 1161.41 317.353 1160.39 327.516 1159.37 328.533 1181.78 338.696 1181.78 348.859 1181.78 366.137 1160.9 378.333 1160.39 390.529 1159.88 394.595 1182.29 411.873 1178.72 429.15 1175.16 482 1139 482 1139L482 1139" stroke="#172C51" stroke-width="10.3125" stroke-miterlimit="8" fill="none" fill-rule="evenodd"/></g></svg>